<?xml version="1.0" standalone="no"?>
<!DOCTYPE svg PUBLIC "-//W3C//DTD SVG 20010904//EN"
 "http://www.w3.org/TR/2001/REC-SVG-20010904/DTD/svg10.dtd">
<svg version="1.0" xmlns="http://www.w3.org/2000/svg"
 width="612.000000pt" height="612.000000pt" viewBox="0 0 612.000000 612.000000"
 preserveAspectRatio="xMidYMid meet">
<metadata>
Created by potrace 1.11, written by Peter Selinger 2001-2013
</metadata>
<g transform="translate(0.000000,612.000000) scale(0.100000,-0.100000)"
fill="#000000" stroke="none">
<path d="M2847 6083 c-1 0 -42 -4 -92 -7 -49 -4 -106 -8 -125 -11 -19 -3 -55
-7 -80 -10 -102 -13 -126 -16 -140 -20 -8 -3 -33 -7 -55 -10 -22 -2 -49 -7
-60 -10 -11 -2 -59 -13 -106 -24 -622 -145 -1180 -488 -1547 -952 -103 -130
-88 -110 -154 -209 -209 -318 -379 -761 -434 -1128 -3 -20 -7 -47 -9 -58 -2
-12 -7 -48 -10 -80 -4 -33 -9 -66 -10 -74 -25 -137 -25 -681 -1 -870 6 -39 17
-121 22 -160 18 -130 69 -345 116 -490 18 -52 33 -99 34 -105 12 -51 136 -319
192 -417 12 -21 31 -54 42 -74 111 -195 337 -467 530 -637 250 -221 610 -424
950 -537 109 -36 334 -95 400 -105 24 -4 47 -8 50 -10 3 -1 25 -6 50 -9 25 -4
54 -8 65 -10 11 -2 49 -7 85 -11 36 -4 76 -9 90 -11 100 -16 512 -23 695 -10
98 6 122 9 215 22 25 3 54 7 65 8 27 4 129 19 135 21 3 1 25 5 50 9 70 12 296
72 385 101 290 96 539 223 790 404 50 36 92 68 95 71 3 3 39 34 80 70 433 373
752 931 879 1537 12 54 23 118 27 143 3 25 7 51 9 58 3 7 7 40 10 75 4 34 8
67 10 74 24 74 24 709 1 853 -3 14 -7 50 -10 80 -4 30 -9 67 -11 83 -3 15 -7
39 -10 55 -2 15 -7 38 -10 52 -2 14 -6 36 -9 50 -2 14 -14 66 -26 115 -12 50
-23 97 -25 105 -10 46 -82 254 -116 338 -86 207 -216 438 -337 600 -262 352
-583 616 -987 811 -249 121 -617 237 -843 266 -20 3 -46 7 -57 9 -11 2 -49 7
-85 11 -36 4 -77 9 -93 11 -93 11 -229 17 -415 18 -118 1 -214 0 -215 -1z
m548 -647 c36 -6 111 -17 145 -22 152 -21 430 -98 555 -153 133 -60 258 -126
340 -180 55 -36 104 -68 109 -70 5 -2 18 -12 30 -21 12 -10 41 -35 66 -55 344
-282 597 -704 710 -1182 56 -238 74 -399 74 -683 1 -181 -6 -337 -19 -411 -2
-13 -6 -42 -9 -64 -144 -1003 -806 -1703 -1781 -1884 -207 -38 -297 -46 -555
-46 -250 0 -332 6 -525 40 -114 20 -135 25 -180 37 -22 6 -45 12 -52 14 -18 3
-175 54 -198 63 -11 5 -45 19 -75 31 -643 263 -1086 787 -1264 1492 -18 73
-36 153 -40 178 -3 25 -8 59 -11 75 -21 134 -29 261 -29 460 0 153 9 345 19
397 3 11 7 39 9 62 23 180 93 433 173 621 278 651 843 1105 1559 1254 56 11
119 23 140 26 22 3 48 7 59 10 11 2 56 7 100 10 44 4 82 9 84 11 6 5 529 -4
566 -10z"/>
<path d="M1880 4690 c-4 -3 -7 -741 -6 -1640 l1 -1635 338 0 c200 0 341 4 345
9 3 5 5 267 5 583 0 407 3 573 11 574 6 0 116 1 244 1 186 0 236 -2 246 -13 7
-8 63 -97 126 -199 62 -102 123 -201 135 -220 13 -19 119 -190 236 -380 117
-190 216 -347 220 -350 12 -9 789 -6 792 3 1 4 -52 86 -118 182 -66 97 -220
320 -342 498 -122 177 -241 350 -265 385 -23 35 -58 83 -76 108 -23 31 -29 46
-20 49 120 42 189 70 245 100 188 98 346 264 429 450 62 140 85 263 85 450 0
66 -2 129 -4 140 -3 11 -8 40 -12 65 -48 292 -255 559 -550 708 -111 57 -286
107 -445 128 -62 8 -1607 12 -1620 4z m1520 -553 c14 -4 38 -10 54 -13 16 -2
62 -20 102 -39 173 -79 257 -232 256 -465 0 -292 -123 -456 -387 -516 -70 -16
-130 -18 -470 -19 l-390 0 -1 533 -1 533 406 -4 c223 -2 417 -7 431 -10z"/>
</g>
</svg>
