<svg height="30" viewBox="0 0 38 30" width="38" xmlns="http://www.w3.org/2000/svg"><path d="m1257.45748 1304.24419-9.24935-9.36273c-.6537-.66172-.65329-1.72624.00092-2.38745.64466-.65155 1.69543-.65714 2.34698-.01249.00449.00444.00895.00891.01339.0134l11.80606 11.9508c.8568.86729.85626 2.26252-.0012 3.12915l-11.80484 11.93111c-.64466.65156-1.69545.65715-2.347.01249-.00449-.00444-.00895-.00891-.01339-.0134-.65371-.66173-.6533-1.72625.00093-2.38747l9.39634-9.49685h-28.91804c-.93241 0-1.68828-.75587-1.68828-1.68828s.75587-1.68828 1.68828-1.68828z" fill="#fff" stroke="#111" transform="matrix(-1 0 0 -1 1264 1321)"/></svg>