<svg id="Layer_1" data-name="Layer 1" xmlns="http://www.w3.org/2000/svg" viewBox="0 0 128 128"><defs><style>.cls-1{fill:blue;}.cls-2{fill:#fff;}.cls-3{fill:none;stroke:#fff;stroke-miterlimit:10;stroke-width:0.5px;}</style></defs><title>contact2</title><circle class="cls-1" cx="64" cy="64" r="64"/><path class="cls-2" d="M111.08,96a2.47,2.47,0,0,0-.79,3.11,2.49,2.49,0,0,0-1.65.44A2.53,2.53,0,0,0,108,103l1.17,1.67a2.48,2.48,0,0,0-1.54.43,2.52,2.52,0,0,0-.64,3.48l0,0L117.11,123l0,0a9.58,9.58,0,0,0,17.3-4c.18-1.18-.19-4.83.22-8.82s.8-7.68.8-7.68v0a2,2,0,0,0-.35-1.25,2,2,0,0,0-2.81-.5c-2.12,1.48-3,4.19-4,6.65l-9.54-12a2.58,2.58,0,0,0-3.49-.6,2.5,2.5,0,0,0-1,1.4A2.47,2.47,0,0,0,111.08,96Zm.57.83a1.5,1.5,0,0,1,2.11.37l8.37,12a.5.5,0,1,0,.83-.57h0l-7.56-10.82,0,0v0a1.5,1.5,0,0,1,.47-1.94,1.52,1.52,0,0,1,2.12.4L128,108.74a.49.49,0,0,0,.7.06.55.55,0,0,0,.14-.17c1.22-2.73,2.1-5.68,4-7a1,1,0,0,1,1.58.85,0,0,0,0,1,0,0s-.36,3.68-.77,7.65-.06,7.73-.22,8.78A8.57,8.57,0,0,1,118,122.5h0l-10.09-14.44h0a1.51,1.51,0,0,1,2.33-1.92l0,0,0,0,5.84,8.35a.5.5,0,1,0,.84-.56h0l-8.08-11.56a1.51,1.51,0,0,1,2.32-1.92.46.46,0,0,0,.07.07l7.87,11.26a.5.5,0,1,0,.84-.56v0l-8.66-12.38A1.5,1.5,0,0,1,111.65,96.78Z" transform="translate(-63.83 -40.83)"/><circle class="cls-3" cx="64" cy="64" r="49.82"/><path class="cls-1" d="M75.48,135.13c-1.36,0-2-14.66-2-14.66L89,115.75,126.25,144l-4.5,20-28.13-7.85Z" transform="translate(-63.83 -40.83)"/><path class="cls-2" d="M83.21,131a3.28,3.28,0,0,1-1.36-1.42,3.61,3.61,0,0,1-.45-1.87A3.18,3.18,0,0,1,82,126,5.26,5.26,0,0,1,85.7,124a3.18,3.18,0,0,1,1.78.45,3.54,3.54,0,0,1,1.29,1.41,3.5,3.5,0,0,1,.46,1.83,2.72,2.72,0,0,1-.66,1.6l-.8-.6a2,2,0,0,0,.54-1.12,2.05,2.05,0,0,0-.28-1.25,2.49,2.49,0,0,0-1-1,2.36,2.36,0,0,0-1.35-.32,4,4,0,0,0-1.6.48,3.37,3.37,0,0,0-1.66,1.66,2.52,2.52,0,0,0,1.12,3,2.19,2.19,0,0,0,1.4.18l.12,1A3.06,3.06,0,0,1,83.21,131Z" transform="translate(-63.83 -40.83)"/><path class="cls-2" d="M91.49,134.74A3.63,3.63,0,0,1,88,137.38a3,3,0,0,1-2.45-3.27A3.63,3.63,0,0,1,89,131.47a3,3,0,0,1,2.45,3.27ZM89,132.36a2.39,2.39,0,0,0-1.58.57,2.46,2.46,0,0,0-1,1.37A1.88,1.88,0,0,0,88,136.49a2.43,2.43,0,0,0,1.59-.57,2.48,2.48,0,0,0,1-1.37A1.88,1.88,0,0,0,89,132.36Z" transform="translate(-63.83 -40.83)"/><path class="cls-2" d="M96.45,139.6a2.06,2.06,0,0,1-.68,1.6l-2.58,2.63-.66-.64,2.35-2.4a1.88,1.88,0,0,0,.64-1.2,1.4,1.4,0,0,0-.45-1,1.88,1.88,0,0,0-.76-.46,1.55,1.55,0,0,0-.93,0,2.3,2.3,0,0,0-1,.64L90.24,141l-.66-.65,4-4.11.57.56-.59.68a1.91,1.91,0,0,1,1.11,0,2.6,2.6,0,0,1,1,.63A2.28,2.28,0,0,1,96.45,139.6Z" transform="translate(-63.83 -40.83)"/><path class="cls-2" d="M98.29,147.32a2.15,2.15,0,0,1-1.5-.49,1.68,1.68,0,0,1-.68-1,1.5,1.5,0,0,1,.34-1.21l2.14-2.81-.92-.7.48-.63.92.69.84-1.1.88.36-1,1.3,1.7,1.29-.48.63-1.7-1.29-2,2.69a.84.84,0,0,0-.19.65.88.88,0,0,0,.37.54,1.34,1.34,0,0,0,1,.26Z" transform="translate(-63.83 -40.83)"/><path class="cls-2" d="M104.51,150.7l-.42.6a2.08,2.08,0,0,1-.65-.25,1.2,1.2,0,0,1-.52-.53,1,1,0,0,1,0-.73,1.79,1.79,0,0,1-1,.15,2.57,2.57,0,0,1-1-.35,2.34,2.34,0,0,1-1-1.05,1.35,1.35,0,0,1,.1-1.27,1.48,1.48,0,0,1,1.07-.69,3.55,3.55,0,0,1,1.78.27l1.45.55.16-.28a1.18,1.18,0,0,0,.16-1,1.37,1.37,0,0,0-.68-.8,1.81,1.81,0,0,0-1-.26,1.77,1.77,0,0,0-1,.38l-.34-.77a1.93,1.93,0,0,1,1.26-.46,2.86,2.86,0,0,1,1.46.41,2.67,2.67,0,0,1,1.18,1.26,1.78,1.78,0,0,1-.2,1.58l-1.43,2.45a.45.45,0,0,0-.07.32.53.53,0,0,0,.24.26A2.05,2.05,0,0,0,104.51,150.7Zm-1.87-1.45a1,1,0,0,0,.9-.51l.4-.69-1.23-.44a3.08,3.08,0,0,0-1.2-.24.8.8,0,0,0-.66.38.65.65,0,0,0,0,.62,1.44,1.44,0,0,0,.57.55A2.29,2.29,0,0,0,102.64,149.25Z" transform="translate(-63.83 -40.83)"/><path class="cls-2" d="M111.67,148.58a2.72,2.72,0,0,1,.42,1.41l-1,0a1.48,1.48,0,0,0-1-1.64,1.68,1.68,0,0,0-1.47,0,2.88,2.88,0,0,0-1.23,3,1.7,1.7,0,0,0,1,1,1.82,1.82,0,0,0,1.12.13,1.49,1.49,0,0,0,.83-.61l.67.6a2.56,2.56,0,0,1-1.32.8,2.52,2.52,0,0,1-1.58-.17,2.67,2.67,0,0,1-1.59-1.51,3.07,3.07,0,0,1,.15-2.32,3.15,3.15,0,0,1,1.52-1.75,2.68,2.68,0,0,1,2.2,0A2.65,2.65,0,0,1,111.67,148.58Z" transform="translate(-63.83 -40.83)"/><path class="cls-2" d="M116.13,155.23a2.1,2.1,0,0,1-1.57.1,1.69,1.69,0,0,1-1-.67,1.47,1.47,0,0,1-.13-1.24l.95-3.41-1.11-.31.21-.77,1.11.31.38-1.33h1l-.44,1.57,2.06.57-.22.77-2-.57-.91,3.25a.84.84,0,0,0,.06.67.92.92,0,0,0,.55.37,1.34,1.34,0,0,0,1.06-.15Z" transform="translate(-63.83 -40.83)"/></svg>