<svg id="Layer_1" data-name="Layer 1" xmlns="http://www.w3.org/2000/svg" viewBox="0 0 128 128"><defs><style>.cls-1{fill:blue;}.cls-2{fill:#fff;}.cls-3{fill:none;stroke:#fff;stroke-miterlimit:10;stroke-width:0.5px;}</style></defs><title>contact</title><circle class="cls-1" cx="64" cy="64" r="64"/><path class="cls-2" d="M111.08,96a2.47,2.47,0,0,0-.79,3.11,2.49,2.49,0,0,0-1.65.44A2.53,2.53,0,0,0,108,103l1.17,1.67a2.48,2.48,0,0,0-1.54.43,2.52,2.52,0,0,0-.64,3.48l0,0L117.11,123l0,0a9.58,9.58,0,0,0,17.3-4c.18-1.18-.19-4.83.22-8.82s.8-7.68.8-7.68v0a2,2,0,0,0-.35-1.25,2,2,0,0,0-2.81-.5c-2.12,1.48-3,4.19-4,6.65l-9.54-12a2.58,2.58,0,0,0-3.49-.6,2.5,2.5,0,0,0-1,1.4A2.47,2.47,0,0,0,111.08,96Zm.57.83a1.5,1.5,0,0,1,2.11.37l8.37,12a.5.5,0,1,0,.83-.57h0l-7.56-10.82,0,0v0a1.5,1.5,0,0,1,.47-1.94,1.52,1.52,0,0,1,2.12.4L128,108.74a.49.49,0,0,0,.7.06.55.55,0,0,0,.14-.17c1.22-2.73,2.1-5.68,4-7a1,1,0,0,1,1.58.85,0,0,0,0,1,0,0s-.36,3.68-.77,7.65-.06,7.73-.22,8.78A8.57,8.57,0,0,1,118,122.5h0l-10.09-14.44h0a1.51,1.51,0,0,1,2.33-1.92l0,0,0,0,5.84,8.35a.5.5,0,1,0,.84-.56h0l-8.08-11.56a1.51,1.51,0,0,1,2.32-1.92.46.46,0,0,0,.07.07l7.87,11.26a.5.5,0,1,0,.84-.56v0l-8.66-12.38A1.5,1.5,0,0,1,111.65,96.78Z" transform="translate(-63.83 -40.83)"/><circle class="cls-3" cx="64" cy="64" r="49.82"/><path class="cls-1" d="M75.48,135.13c-1.36,0-6.23-25.91-6.23-25.91L85.75,106l44.69,38.06.81,20.44-37.63-8.35Z" transform="translate(-63.83 -40.83)"/><path class="cls-2" d="M78,118.75a3.31,3.31,0,0,1-1-1.71,3.59,3.59,0,0,1,0-1.93,3.13,3.13,0,0,1,1-1.5,4.73,4.73,0,0,1,1.93-.9,4.63,4.63,0,0,1,2.12,0,3.12,3.12,0,0,1,1.6.88,3.53,3.53,0,0,1,.89,1.69,3.64,3.64,0,0,1,0,1.89,2.74,2.74,0,0,1-1,1.38l-.63-.79a2,2,0,0,0,.81-.94,2.11,2.11,0,0,0,.05-1.28,2.55,2.55,0,0,0-.66-1.25A2.36,2.36,0,0,0,82,113.6a3.78,3.78,0,0,0-1.66.06,3.31,3.31,0,0,0-2,1.17,2.31,2.31,0,0,0-.37,2,2.28,2.28,0,0,0,.69,1.21,2.1,2.1,0,0,0,1.3.53l-.13,1A3,3,0,0,1,78,118.75Z" transform="translate(-63.83 -40.83)"/><path class="cls-2" d="M85.08,124.5A3.1,3.1,0,0,1,83.32,126a3.06,3.06,0,0,1-2.32.14,2.65,2.65,0,0,1-1.51-1.59,2.7,2.7,0,0,1,0-2.19,3.63,3.63,0,0,1,4.08-1.66,3,3,0,0,1,1.54,3.78Zm-1.83-2.94a2.43,2.43,0,0,0-1.69.15,2.45,2.45,0,0,0-1.3,1.07,1.89,1.89,0,0,0,1,2.54,2.88,2.88,0,0,0,3-1.22,1.69,1.69,0,0,0,0-1.49A1.72,1.72,0,0,0,83.25,121.56Z" transform="translate(-63.83 -40.83)"/><path class="cls-2" d="M88.64,130.47a2.09,2.09,0,0,1-1.07,1.37l-3.17,1.89-.47-.79,2.89-1.72a1.87,1.87,0,0,0,.92-1,1.35,1.35,0,0,0-.18-1.09,1.9,1.9,0,0,0-.62-.64,1.63,1.63,0,0,0-.9-.24,2.31,2.31,0,0,0-1.12.37l-2.63,1.57-.47-.79,4.94-3,.42.69-.75.51a1.8,1.8,0,0,1,1.07.29,2.62,2.62,0,0,1,.8.85A2.4,2.4,0,0,1,88.64,130.47Z" transform="translate(-63.83 -40.83)"/><path class="cls-2" d="M88.45,138.4a2.2,2.2,0,0,1-1.33-.85,1.68,1.68,0,0,1-.4-1.14,1.48,1.48,0,0,1,.63-1.08l2.79-2.18-.71-.9.62-.49.71.91,1.09-.86.77.57-1.29,1,1.32,1.68-.63.49-1.31-1.68L88.05,136a.78.78,0,0,0-.35.57.89.89,0,0,0,.22.63,1.36,1.36,0,0,0,.94.51Z" transform="translate(-63.83 -40.83)"/><path class="cls-2" d="M93.6,143.25l-.55.47a1.84,1.84,0,0,1-.57-.4,1.19,1.19,0,0,1-.37-.64,1,1,0,0,1,.24-.7,1.75,1.75,0,0,1-1-.1,2.69,2.69,0,0,1-.92-.61,2.31,2.31,0,0,1-.71-1.27,1.28,1.28,0,0,1,.42-1.2,1.45,1.45,0,0,1,1.21-.4,3.58,3.58,0,0,1,1.65.71l1.26.91.23-.23a1.25,1.25,0,0,0,.4-.91,1.38,1.38,0,0,0-.46-.94,1.79,1.79,0,0,0-.9-.51,1.74,1.74,0,0,0-1,.12l-.13-.83a1.89,1.89,0,0,1,1.33-.12,2.78,2.78,0,0,1,1.31.77,2.58,2.58,0,0,1,.81,1.51,1.72,1.72,0,0,1-.59,1.48l-2,2a.43.43,0,0,0-.15.3.49.49,0,0,0,.16.31A1.72,1.72,0,0,0,93.6,143.25Zm-1.44-1.87a1.06,1.06,0,0,0,1-.27l.56-.56-1.08-.74a3.14,3.14,0,0,0-1.1-.54.8.8,0,0,0-.74.2.66.66,0,0,0-.19.59,1.39,1.39,0,0,0,.41.68A2.32,2.32,0,0,0,92.16,141.38Z" transform="translate(-63.83 -40.83)"/><path class="cls-2" d="M101.06,143a2.66,2.66,0,0,1,.06,1.46l-1-.19a1.5,1.5,0,0,0-.54-1.84,1.7,1.7,0,0,0-1.43-.35,2.9,2.9,0,0,0-1.94,2.56A1.67,1.67,0,0,0,97,146a1.77,1.77,0,0,0,1.05.41,1.43,1.43,0,0,0,1-.38l.5.75a2.58,2.58,0,0,1-1.5.44,2.55,2.55,0,0,1-1.48-.56,2.66,2.66,0,0,1-1.15-1.87A3.65,3.65,0,0,1,98,141.23a2.69,2.69,0,0,1,2.11.6A2.53,2.53,0,0,1,101.06,143Z" transform="translate(-63.83 -40.83)"/><path class="cls-2" d="M103.69,150.6a2.16,2.16,0,0,1-1.55-.31,1.67,1.67,0,0,1-.79-.9,1.47,1.47,0,0,1,.19-1.24l1.79-3.05-1-.58.4-.69,1,.58.69-1.19.93.24-.83,1.42,1.84,1.07-.4.69-1.84-1.08-1.7,2.92a.78.78,0,0,0-.11.66.86.86,0,0,0,.43.5,1.34,1.34,0,0,0,1.06.13Z" transform="translate(-63.83 -40.83)"/><path class="cls-2" d="M116.54,155.83l-.83-.25,1.36-4.58.67-1.89h0l-4.32,5.79-.75-.22-.47-7.22h0l-.47,1.95L110.34,154l-.84-.24,2.16-7.3,1.36.41.29,4.9v2h0l1.1-1.64,2.91-4,1.36.4Z" transform="translate(-63.83 -40.83)"/><path class="cls-2" d="M124.78,154.37l-4.31-.49a2.13,2.13,0,0,0,.42,1.42,1.8,1.8,0,0,0,1.24.63,2.42,2.42,0,0,0,1.07-.1,1.16,1.16,0,0,0,.64-.57l.72.49a2.43,2.43,0,0,1-1,.82,3.09,3.09,0,0,1-1.5.16,2.68,2.68,0,0,1-2-1,3.69,3.69,0,0,1,.47-4.38,2.54,2.54,0,0,1,2.08-.56,2.62,2.62,0,0,1,1.35.51,2.27,2.27,0,0,1,.77,1.06,3.08,3.08,0,0,1,.14,1.4A3.5,3.5,0,0,1,124.78,154.37Zm-3.5-2.49a2.06,2.06,0,0,0-.71,1.19l3.47.39a2.14,2.14,0,0,0-.38-1.31,1.56,1.56,0,0,0-1.11-.58A1.66,1.66,0,0,0,121.28,151.88Z" transform="translate(-63.83 -40.83)"/></svg>