<svg id="Layer_1" data-name="Layer 1" xmlns="http://www.w3.org/2000/svg" viewBox="0 0 100.42 100.4"><defs><style>.cls-1{fill:#111;}.cls-2{fill:none;stroke:#111;stroke-miterlimit:10;stroke-width:0.75px;}.cls-3{fill:blue;}</style></defs><title>contact3</title><path class="cls-1" d="M110.15,103.3a2,2,0,0,0-.62,2.47,2.06,2.06,0,0,0-1.32.36,2,2,0,0,0-.49,2.79l.93,1.33a2,2,0,0,0-1.23.34,2,2,0,0,0-.5,2.77v0l8,11.47v0a7.62,7.62,0,0,0,13.76-3.18c.15-.93-.15-3.84.18-7s.63-6.11.63-6.11v0a1.56,1.56,0,0,0-.28-1,1.61,1.61,0,0,0-2.23-.4c-1.69,1.18-2.38,3.34-3.2,5.29l-7.58-9.51a2,2,0,0,0-2.77-.48,2,2,0,0,0-.79,1.11A2,2,0,0,0,110.15,103.3Zm.46.66a1.19,1.19,0,0,1,1.67.3l6.66,9.52a.4.4,0,0,0,.56.1.39.39,0,0,0,.1-.55h0l-6-8.61,0,0v0a1.18,1.18,0,0,1,.38-1.54,1.21,1.21,0,0,1,1.68.32l8,10a.39.39,0,0,0,.56,0,.31.31,0,0,0,.11-.14c1-2.17,1.66-4.51,3.19-5.57a.78.78,0,0,1,1.11.2.71.71,0,0,1,.14.48v0s-.29,2.92-.62,6.08,0,6.14-.18,7a6.81,6.81,0,0,1-12.3,2.85h0l-8-11.48h0a1.2,1.2,0,0,1,1.85-1.53.08.08,0,0,0,0,0l0,0,4.65,6.65a.4.4,0,0,0,.66-.45h0l-6.42-9.19a1.2,1.2,0,0,1,1.85-1.53l0,.06,6.26,9a.4.4,0,0,0,.56.11.41.41,0,0,0,.11-.56h0l-6.89-9.85A1.19,1.19,0,0,1,110.61,104Z" transform="translate(-77.64 -54.64)"/><path class="cls-2" d="M78.61,112.41a49.83,49.83,0,1,1,44.43,42,50.8,50.8,0,0,1-6.36-1" transform="translate(-77.64 -54.64)"/><line class="cls-3" x1="42.75" y1="98.09" x2="42.47" y2="99.32"/><path d="M79.13,124.38a3.7,3.7,0,0,1-1.23-1.73,3.91,3.91,0,0,1-.2-2,3.29,3.29,0,0,1,.9-1.7,4.93,4.93,0,0,1,1.89-1.16,4.84,4.84,0,0,1,2.2-.3,3.35,3.35,0,0,1,1.77.74,3.78,3.78,0,0,1,1.12,1.69,3.74,3.74,0,0,1,.21,2,2.74,2.74,0,0,1-1,1.59l-.92-1a2.11,2.11,0,0,0,.75-1,2,2,0,0,0-.09-1.22,2.21,2.21,0,0,0-1.34-1.42,3.25,3.25,0,0,0-2.28.11,3.37,3.37,0,0,0-1.84,1.33,2.14,2.14,0,0,0-.14,1.92,2.11,2.11,0,0,0,.79,1.09,2.17,2.17,0,0,0,1.32.33l0,1.29A3.12,3.12,0,0,1,79.13,124.38Z" transform="translate(-77.64 -54.64)"/><path d="M87.12,129.43a3.19,3.19,0,0,1-1.62,1.8,3.13,3.13,0,0,1-2.39.42A3.32,3.32,0,0,1,81,127.81,3.19,3.19,0,0,1,82.6,126a3.12,3.12,0,0,1,2.39-.42,3.32,3.32,0,0,1,2.13,3.84Zm-2.31-2.67a3,3,0,0,0-2.74,1.52,1.72,1.72,0,0,0,1.23,2.2A2.93,2.93,0,0,0,86,129a1.51,1.51,0,0,0-.12-1.36A1.54,1.54,0,0,0,84.81,126.76Z" transform="translate(-77.64 -54.64)"/><path d="M91.58,135.14a2.13,2.13,0,0,1-.92,1.52L87.59,139l-.79-1,2.75-2.14c.84-.64,1-1.31.47-2a1.58,1.58,0,0,0-1.07-.63,1.91,1.91,0,0,0-1.42.49L85,135.72l-.79-1L89,131l.7.9-.75.66a1.86,1.86,0,0,1,1.17.14,2.42,2.42,0,0,1,1,.78A2.27,2.27,0,0,1,91.58,135.14Z" transform="translate(-77.64 -54.64)"/><path d="M92.36,143.34a2.12,2.12,0,0,1-.77-.23,2.77,2.77,0,0,1-.73-.53,2,2,0,0,1-.65-1.23,1.6,1.6,0,0,1,.55-1.27l2.4-2.42-.8-.8.71-.72.81.81,1-1,1.17.65-1.24,1.25,1.48,1.48-.71.72-1.49-1.48-2.25,2.26a.82.82,0,0,0-.28.62.91.91,0,0,0,.3.6,1.38,1.38,0,0,0,1,.41Z" transform="translate(-77.64 -54.64)"/><path d="M98.48,147.6l-.59.64a1.84,1.84,0,0,1-.68-.35,1.47,1.47,0,0,1-.52-.66,1,1,0,0,1,.1-.79,1.78,1.78,0,0,1-1.05,0,2.92,2.92,0,0,1-1.1-.55,2.34,2.34,0,0,1-.87-1.19,1.36,1.36,0,0,1,.28-1.25,1.5,1.5,0,0,1,1.2-.59,3.74,3.74,0,0,1,1.81.53l1.36.72.2-.26a1.14,1.14,0,0,0,.28-.88,1.27,1.27,0,0,0-.52-.81,1.5,1.5,0,0,0-1.89-.09l-.46-1a1.94,1.94,0,0,1,1.39-.37,3,3,0,0,1,1.56.67,2.92,2.92,0,0,1,1.13,1.56,1.89,1.89,0,0,1-.43,1.67L98,146.75a.48.48,0,0,0-.12.32.48.48,0,0,0,.2.3A1.83,1.83,0,0,0,98.48,147.6Zm-1.94-1.84a1,1,0,0,0,.9-.36l.44-.57-1.2-.59a2.4,2.4,0,0,0-.93-.3.66.66,0,0,0-.59.27.6.6,0,0,0-.13.55,1.09,1.09,0,0,0,.42.55A2.16,2.16,0,0,0,96.54,145.76Z" transform="translate(-77.64 -54.64)"/><path d="M106.35,148.05l-1.28-.17a1.36,1.36,0,0,0-.66-1.68,1.51,1.51,0,0,0-1.36-.14,2.53,2.53,0,0,0-1.16,1.14,2.39,2.39,0,0,0-.37,1.57,1.5,1.5,0,0,0,.82,1.08,1.46,1.46,0,0,0,1,.22,1.48,1.48,0,0,0,.86-.5l.83.92a2.44,2.44,0,0,1-1.47.68,2.85,2.85,0,0,1-1.7-.42,2.93,2.93,0,0,1-1.52-1.81,3.68,3.68,0,0,1,2.25-4,2.9,2.9,0,0,1,2.32.36A2.51,2.51,0,0,1,106.35,148.05Z" transform="translate(-77.64 -54.64)"/><path d="M109.9,153.91a2.29,2.29,0,0,1-.8.08,2.76,2.76,0,0,1-.87-.21,2,2,0,0,1-1.07-.89,1.6,1.6,0,0,1,0-1.39l1.3-3.15-1-.43.38-.94,1,.44.54-1.3,1.32.16-.67,1.63,1.94.8-.38.93-1.94-.8-1.22,2.95a.78.78,0,0,0,0,.68.9.9,0,0,0,.51.44,1.41,1.41,0,0,0,1,0Z" transform="translate(-77.64 -54.64)"/></svg>