<svg height="11" viewBox="0 0 9 11" width="9" xmlns="http://www.w3.org/2000/svg"><path d="m3.84749696 6.05784276c-1.22438157 0-2.2202765-.99589493-2.2202765-2.22027649 0-1.22438157.99589493-2.2202765 2.2202765-2.2202765s2.2202765.99589493 2.2202765 2.2202765c0 1.22438156-.99589493 2.22027649-2.2202765 2.22027649m0-6.05529953c-2.18636682 0-3.83502304 1.73544884-3.83502304 4.03686636 0 2.89564423 3.56536037 5.50386359 3.71674285 5.61326267.03512074.02583594.07710415.03835023.11828019.03835023.04157972 0 .08315945-.01251429.11828018-.03835023.15178618-.10939908 3.71674286-2.71761844 3.71674286-5.61326267 0-2.30141752-1.64865622-4.03686636-3.83502304-4.03686636" fill="#aaa" fill-rule="evenodd" transform="translate(.682028 .35023)"/></svg>