<svg height="85" viewBox="0 0 82 85" width="82" xmlns="http://www.w3.org/2000/svg"><path d="m41.4441712 84.4464141c-3.7487305 0-7.3765332-.3930128-10.8834083-1.1790358-3.5068751-.7860231-6.7718976-1.9045965-9.7950674-3.3557176-6.2881924-3.0231699-11.2461886-7.5276907-14.87399136-13.5135653-3.62780276-5.9858745-5.44170414-13.3926376-5.44170414-22.2202919v-2.720852c0-4.2324357.45347535-8.1927889 1.36042603-11.8810541.90695069-3.6882652 2.26737673-7.104448 4.08127811-10.2485428 3.62780276-6.1672647 8.52533646-10.91364087 14.69260116-14.23912581s12.9391623-4.98822879 20.3156955-4.98822879c3.8696553 0 7.5276907.42324273 10.9741033 1.26973097 3.4464126.84648823 6.6812025 2.05575397 9.7043724 3.62780275 6.1672647 3.26502249 11.0043359 7.92070358 14.511211 13.96704058 3.5068751 6.0463371 5.260314 13.3019426 5.260314 21.7668166v3.0836323c0 4.1115108-.4534753 7.9811661-1.360426 11.6089689-.9069507 3.6278027-2.2673767 6.9532877-4.0812781 9.9764576-3.5068751 6.046337-8.2834839 10.7322507-14.3298209 14.0577357-6.046337 3.3254849-12.7577721 4.9882287-20.1343053 4.9882287zm0-12.1531392c8.9485792 0 15.780942-2.5092293 20.4970856-7.5276907s7.0742153-12.364762 7.0742153-22.0389018v-.9069507c0-9.6741397-2.4789994-17.0809056-7.4369956-22.2202919s-11.8508214-7.7090808-20.6784757-7.7090808-15.690247 2.6603896-20.5877807 7.981166c-4.8975337 5.3207765-7.3463006 12.8786998-7.3463006 22.6737673v.7255605c0 9.6741398 2.5394619 16.9297453 7.6183858 21.7668166s12.0322116 7.2556055 20.8598659 7.2556055zm-.5441704-42.082512h-5.0789239v10.520628h5.0789239c2.6603896 0 4.6556811-.4232427 5.9858745-1.269731 1.3301934-.8464882 1.9952915-2.2976093 1.9952915-4.3533633 0-2.0557539-.6348655-3.3859501-1.9045964-3.990583-1.269731-.6046329-3.2952551-.9069507-6.0765696-.9069507zm.1813901 20.4970856h-5.260314v11.9717491h-11.0647984v-42.082512h17.7762335c6.2881924 0 10.7624806 1.269731 13.4228702 3.8091929s3.990583 5.8649469 3.990583 9.9764576c0 3.1440948-.786023 5.6230942-2.3580717 7.4369956-1.5720488 1.8139014-3.7487305 3.1440948-6.530045 3.9905831 2.4185342.6046328 4.2626682 1.7534389 5.5323992 3.4464126s1.9045964 4.1719732 1.9045964 7.4369956v3.4464127c0 .7255605.0604625 1.2999635.1813902 1.7232063.1209277.4232427.3023178.6953279.5441704.8162556h-11.0647984c-.3627803-.2418526-.6046329-.6348655-.7255606-1.1790359s-.1813901-1.0581082-.1813901-1.5418162v-3.2650225c0-2.4185342-.3930129-4.0208156-1.1790359-4.8068386s-2.4487669-1.1790359-4.9882288-1.1790359z" fill-rule="evenodd"/></svg>