<svg id="Layer_1" data-name="Layer 1" xmlns="http://www.w3.org/2000/svg" viewBox="0 0 70.13 70.13"><defs><style>.cls-1{isolation:isolate;}</style></defs><title>logo-black-2</title><g class="cls-1"><g class="cls-1"><path d="M49.33,11.2a23.93,23.93,0,0,1,9.72,9.64,29.47,29.47,0,0,1,3.44,14.5,29.47,29.47,0,0,1-3.44,14.5,24,24,0,0,1-9.72,9.64,30.3,30.3,0,0,1-14.62,3.4,30.3,30.3,0,0,1-14.62-3.4,23.87,23.87,0,0,1-9.72-9.64,29.47,29.47,0,0,1-3.44-14.5,29.47,29.47,0,0,1,3.44-14.5,23.81,23.81,0,0,1,9.72-9.64A30.18,30.18,0,0,1,34.71,7.8,30.18,30.18,0,0,1,49.33,11.2ZM46.09,54.45a18.23,18.23,0,0,0,7.53-7.61,24,24,0,0,0,2.64-11.5,24.08,24.08,0,0,0-2.64-11.51,18.23,18.23,0,0,0-7.53-7.61,23.42,23.42,0,0,0-11.38-2.67,23.42,23.42,0,0,0-11.38,2.67,18.5,18.5,0,0,0-7.57,7.61,23.75,23.75,0,0,0-2.68,11.51,23.71,23.71,0,0,0,2.68,11.5,18.5,18.5,0,0,0,7.57,7.61,23.31,23.31,0,0,0,11.38,2.68A23.31,23.31,0,0,0,46.09,54.45Zm0-18.63a9.49,9.49,0,0,1-5.18,3.24l7.69,11.18H41.27L34.71,39.63H30.17V50.24H23.94V20.43H36.82a11.86,11.86,0,0,1,8,2.64,8.72,8.72,0,0,1,3.08,7A9,9,0,0,1,46.05,35.82Zm-15.88-.73h6c3.62,0,5.42-1.62,5.42-4.86s-1.8-4.86-5.42-4.86h-6Z"/></g></g></svg>