<svg height="56" viewBox="0 0 53 56" width="53" xmlns="http://www.w3.org/2000/svg"><path d="m26.742 55.202c-2.4386673 0-4.7986673-.2556673-7.08-.767s-4.4053327-1.239-6.372-2.183c-4.09066727-1.9666673-7.316-4.897-9.676-8.791s-3.54-8.7123327-3.54-14.455v-1.77c0-2.7533327.295-5.3296673.885-7.729s1.475-4.6216673 2.655-6.667c2.36-4.012 5.546-7.09966727 9.558-9.263s8.4173327-3.245 13.216-3.245c2.5173327 0 4.897.27533273 7.139.826s4.3463327 1.33733273 6.313 2.36c4.012 2.124 7.1586673 5.15266727 9.44 9.086 2.2813327 3.9333327 3.422 8.6533327 3.422 14.16v2.006c0 2.6746673-.295 5.192-.885 7.552s-1.475 4.5233327-2.655 6.49c-2.2813327 3.9333327-5.3886673 6.9816673-9.322 9.145s-8.2993327 3.245-13.098 3.245zm0-7.906c5.8213327 0 10.266-1.6323327 13.334-4.897s4.602-8.0436673 4.602-14.337v-.59c0-6.2933327-1.6126673-11.1116673-4.838-14.455-3.2253327-3.34333273-7.7093327-5.015-13.452-5.015s-10.207 1.73066727-13.393 5.192c-3.186 3.4613327-4.779 8.378-4.779 14.75v.472c0 6.2933327 1.652 11.0133327 4.956 14.16s7.8273327 4.72 13.57 4.72zm-.354-27.376h-3.304v6.844h3.304c1.7306673 0 3.0286673-.2753327 3.894-.826s1.298-1.4946673 1.298-2.832-.413-2.2026673-1.239-2.596-2.1436673-.59-3.953-.59zm.118 13.334h-3.422v7.788h-7.198v-27.376h11.564c4.0906673 0 7.0013327.826 8.732 2.478s2.596 3.8153327 2.596 6.49c0 2.0453327-.5113327 3.658-1.534 4.838s-2.4386673 2.0453327-4.248 2.596c1.5733327.3933327 2.773 1.1406673 3.599 2.242s1.239 2.714 1.239 4.838v2.242c0 .472.0393327.8456673.118 1.121s.1966673.4523327.354.531h-7.198c-.236-.1573327-.3933327-.413-.472-.767s-.118-.6883327-.118-1.003v-2.124c0-1.5733327-.2556673-2.6156673-.767-3.127s-1.593-.767-3.245-.767z" fill-rule="evenodd"/></svg>