<svg height="45" viewBox="0 0 150 45" width="150" xmlns="http://www.w3.org/2000/svg"><path d="m59.3106383 25.83v9.5271429h-5.2851064v-9.5271429l-8.9617021-15.93h5.6297872l4.0595745 7.5985714 1.9148936 4.0114286 1.9531915-4.0114286 4.0595745-7.5985714h5.5914893zm40.1361702 9.5271429h-4.7489362v-13.2685715l.2297873-7.4442857h-.0765958l-7.0085106 20.7128572h-4.3276596l-6.9702127-20.7128572h-.0765958l.2680851 7.4442857v13.2685715h-4.787234v-25.4571429h7.6595744l4.5574468 13.8857143 1.6085107 5.7471428h.0765957l1.6468085-5.7085714 4.519149-13.9242857h7.4297872zm26.0808515-4.2814286v4.2814286h-19.493617v-25.4571429h18.957446v4.2814286h-13.67234v6.3257143h10.761702v4.0885714h-10.761702v6.48zm13.978723-21.56142859c2.348948 0 4.365949.39213892 6.051064 1.17642859 1.685115.7842896 3.165951 2.0249915 4.442553 3.7221428l-3.638298 3.5871429c-.663833-1.3885783-1.544675-2.4235681-2.642553-3.105s-2.489353-1.0221429-4.174468-1.0221429c-1.531923 0-2.712762.2892829-3.542553.8678572-.829792.5785743-1.244681 1.3435667-1.244681 2.295 0 .87429.421272 1.5685688 1.26383 2.0828571.842557.5142883 2.361691.9642838 4.557446 1.35 2.297884.4371451 4.123398.9771397 5.476596 1.62 1.353198.6428604 2.34255 1.4464238 2.968085 2.4107143s.938298 2.1664214.938298 3.6064286c0 1.5685793-.440421 2.9249943-1.321276 4.0692857-.880856 1.1442914-2.106375 2.0249969-3.676596 2.6421429-1.570221.6171459-3.36382.9257142-5.380851.9257142-2.782993 0-5.061694-.3921389-6.83617-1.1764285-1.774477-.7842897-3.210633-1.9735635-4.308511-3.5678572l3.140425-3.78c.944686 1.5685793 2.029781 2.654997 3.25532 3.2592857 1.225538.6042888 2.744672.9064286 4.557446.9064286 1.634051 0 2.87872-.2571403 3.734043-.7714286.855323-.5142882 1.282979-1.2471381 1.282979-2.1985714 0-.6942892-.402124-1.2728548-1.206383-1.7357143-.80426-.4628594-2.240415-.8999979-4.308511-1.3114285-2.37448-.4885739-4.270206-1.0671395-5.687234-1.7357143s-2.444678-1.4914237-3.082979-2.4685715c-.638301-.9771477-.957447-2.185707-.957447-3.6257142 0-1.5171505.408507-2.8864225 1.225532-4.1078572.817026-1.2214347 2.010631-2.1792822 3.580851-2.8735714 1.570221-.69428918 3.414884-1.04142859 5.534043-1.04142859zm-117.1699468-8.92767857c4.4377881 0 8.3261801.91124089 11.6652925 2.73375 3.3391124 1.82250912 5.924193 4.4043583 7.7553192 7.74562496 1.8311262 3.3412668 2.7466755 7.2248887 2.7466755 11.6509822s-.9155493 8.3097154-2.7466755 11.6509821-4.4162068 5.9231159-7.7553192 7.745625-7.2275044 2.73375-11.6652925 2.73375c-4.4808735 0-8.3908078-.9112409-11.7299202-2.73375-3.33911249-1.8225091-5.92419302-4.4043583-7.75531919-7.745625-1.83112618-3.3412667-2.74667553-7.2248886-2.74667553-11.6509821s.91554935-8.3097154 2.74667553-11.6509822c1.83112617-3.34126666 4.4162067-5.92311584 7.75531919-7.74562496 3.3391124-1.82250911 7.2490467-2.73375 11.7299202-2.73375zm0 39.24883926c3.3606551 0 6.3119554-.7051268 8.8539893-2.1154018 2.542034-1.4102749 4.5131579-3.4063263 5.9134309-5.9882142 1.400273-2.581888 2.1003989-5.5868133 2.1003989-9.0148661s-.7001259-6.4329781-2.1003989-9.0148661c-1.400273-2.5818879-3.3713969-4.57793934-5.9134309-5.98821427-2.5420339-1.41027491-5.4933342-2.11540179-8.8539893-2.11540179-3.4037404 0-6.3765831.70512688-8.9186171 2.11540179-2.5420339 1.41027493-4.50238671 3.40632637-5.88111697 5.98821427-1.3787303 2.581888-2.06808511 5.5868133-2.06808511 9.0148661s.68935481 6.4329781 2.06808511 9.0148661c1.37873026 2.5818879 3.33908307 4.5779393 5.88111697 5.9882142 2.542034 1.410275 5.5148767 2.1154018 8.9186171 2.1154018zm10.5343085-21.3492857c0 1.7791161-.4631603 3.2870028-1.3894947 4.5237054s-2.2511882 2.1153992-3.9746011 2.636116l5.9457447 8.9172322h-6.7859042l-4.7824468-8.3314286h-2.7143617v8.3314286h-5.7518618v-23.8877679h10.7928192c2.542034 0 4.6208696.715975 6.2365691 2.1479465 1.6156996 1.4319714 2.4235373 3.3195418 2.4235373 5.6627678zm-13.7010638 3.645h4.0069148c2.5851194 0 3.8776596-1.128203 3.8776596-3.3846428 0-2.2564399-1.2925402-3.3846429-3.8776596-3.3846429h-4.0069148z"/></svg>