<svg height="56" viewBox="0 0 56 56" width="56" xmlns="http://www.w3.org/2000/svg"><path d="m94.995 60.73c5.562028 0 10.435479 1.1339887 14.6205 3.402s7.424989 5.4809792 9.72 9.639 3.4425 8.9909725 3.4425 14.499-1.147489 10.3409792-3.4425 14.499c-2.295011 4.158021-5.534979 7.370989-9.72 9.639s-9.058472 3.402-14.6205 3.402c-5.6160281 0-10.5164791-1.133989-14.7015-3.402s-7.4249885-5.480979-9.72-9.639c-2.2950115-4.1580208-3.4425-8.9909725-3.4425-14.499s1.1474885-10.3409792 3.4425-14.499 5.5349791-7.3709887 9.72-9.639 9.0854719-3.402 14.7015-3.402zm0 48.843c4.2120211 0 7.910984-.877491 11.097-2.6325s5.656491-4.238984 7.4115-7.452c1.755009-3.2130161 2.6325-6.9524787 2.6325-11.2185s-.877491-8.0054839-2.6325-11.2185-4.225484-5.6969912-7.4115-7.452-6.8849789-2.6325-11.097-2.6325c-4.2660213 0-7.9919841.8774912-11.178 2.6325s-5.6429914 4.2389839-7.371 7.452-2.592 6.9524787-2.592 11.2185.8639914 8.0054839 2.592 11.2185c1.7280086 3.213016 4.1849841 5.696991 7.371 7.452s6.9119787 2.6325 11.178 2.6325zm13.203-26.568c0 2.2140111-.580494 4.0904923-1.7415 5.6295s-2.821489 2.6324968-4.9815 3.2805l7.452 11.097h-8.505l-5.994-10.368h-3.402v10.368h-7.209v-29.727h13.527c3.186016 0 5.79149.8909911 7.8165 2.673s3.0375 4.1309854 3.0375 7.047zm-17.172 4.536h5.022c3.2400162 0 4.86-1.403986 4.86-4.212s-1.6199838-4.212-4.86-4.212h-5.022z" fill-rule="evenodd" transform="translate(-67 -60)"/></svg>