<svg height="35" viewBox="0 0 39 35" width="39" xmlns="http://www.w3.org/2000/svg"><path d="m21.06 34.32c-5.71194 0-10.77414-2.81112-13.89414-7.11672l1.92426-2.7495c2.66214 4.3524 7.60968 7.16196 13.17186 6.69474 6.61206-.55458 12.03774-5.83206 12.753-12.42852.9555-8.80698-6.29304-16.22556-15.04854-15.55866-6.72828.51246-11.94492 5.88432-12.80682 12.43866h3.76038l-5.46 7.8-5.46-7.8h3.97566c.84864-9.36468 9.24768-16.58358 19.04604-15.49002 7.87254.87828 14.21082 7.21656 15.0891 15.0891 1.15284 10.33578-6.94278 19.12092-17.0508 19.12092z"/></svg>